<?xml version="1.0" encoding="UTF-8"?>
<svg width="220" height="220" viewBox="0 0 220 220" fill="none" xmlns="http://www.w3.org/2000/svg">
  <defs>
    <linearGradient id="grad-bg" x1="20" y1="15" x2="200" y2="205" gradientUnits="userSpaceOnUse">
      <stop offset="0%" stop-color="#0F7C91"/>
      <stop offset="40%" stop-color="#2F5FA5"/>
      <stop offset="70%" stop-color="#4D439F"/>
      <stop offset="100%" stop-color="#6E2F86"/>
    </linearGradient>
    <linearGradient id="grad-e" x1="60" y1="40" x2="160" y2="180" gradientUnits="userSpaceOnUse">
      <stop offset="0%" stop-color="#F5F7FA" stop-opacity="0.95"/>
      <stop offset="100%" stop-color="#E2E8F0" stop-opacity="0.85"/>
    </linearGradient>
    <filter id="shadow" x="-20%" y="-20%" width="140%" height="140%" color-interpolation-filters="sRGB">
      <feDropShadow dx="0" dy="4" stdDeviation="12" flood-color="#1E2550" flood-opacity="0.35"/>
    </filter>
    <filter id="glow" x="-50%" y="-50%" width="200%" height="200%">
      <feGaussianBlur stdDeviation="18" result="blur"/>
      <feColorMatrix in="blur" type="matrix" values="0 0 0 0 0.30 0 0 0 0 0.42 0 0 0 0 0.60 0 0 0 0.45 0"/>
    </filter>
  </defs>
  <circle cx="110" cy="110" r="92" fill="url(#grad-bg)" stroke="rgba(255,255,255,0.15)" stroke-width="2" filter="url(#shadow)"/>
  <g filter="url(#glow)">
    <circle cx="110" cy="110" r="92" fill="none" stroke="url(#grad-bg)" stroke-width="3" stroke-dasharray="14 22" stroke-linecap="round" opacity="0.55"/>
  </g>
  <path d="M110 55c-30.38 0-55 24.62-55 55s24.62 55 55 55c18.54 0 35.02-9.24 45.1-23.36 2.52-3.52 1.68-8.44-1.84-10.96-3.52-2.52-8.44-1.68-10.96 1.84C134.88 141.02 123.22 148 110 148c-20.95 0-38-17.05-38-38s17.05-38 38-38c11.32 0 21.5 4.98 28.43 12.86 2.92 3.25 7.95 3.53 11.21 0.61 3.25-2.92 3.53-7.96 0.61-11.21C138.94 62 125.24 55 110 55Zm-21 53c-3.87 0-7 3.13-7 7s3.13 7 7 7h42c3.87 0 7-3.13 7-7s-3.13-7-7-7h-42Z" fill="url(#grad-e)"/>
</svg>
